<?xml version="1.0" encoding="utf-8" ?>
<svg baseProfile="full" height="290" version="1.1" width="700" xmlns="http://www.w3.org/2000/svg" xmlns:ev="http://www.w3.org/2001/xml-events" xmlns:xlink="http://www.w3.org/1999/xlink"><defs><linearGradient id="major_gradient" x1="0%" x2="100%" y1="0%" y2="0%"><stop offset="0%" stop-color="#4F8EF7" stop-opacity="1" /><stop offset="100%" stop-color="#2E5BB8" stop-opacity="1" /></linearGradient><linearGradient id="medium_gradient" x1="0%" x2="100%" y1="0%" y2="0%"><stop offset="0%" stop-color="#6BB6FF" stop-opacity="1" /><stop offset="100%" stop-color="#4F8EF7" stop-opacity="1" /></linearGradient><linearGradient id="minor_gradient" x1="0%" x2="100%" y1="0%" y2="0%"><stop offset="0%" stop-color="#A8D8FF" stop-opacity="1" /><stop offset="100%" stop-color="#6BB6FF" stop-opacity="1" /></linearGradient><linearGradient id="bg_gradient" x1="0%" x2="0%" y1="0%" y2="100%"><stop offset="0%" stop-color="#FAFBFC" stop-opacity="1" /><stop offset="100%" stop-color="#F5F7FA" stop-opacity="1" /></linearGradient></defs><rect fill="url(#bg_gradient)" height="290" width="700" x="0" y="0" /><g><text fill="#1A1A1A" font-family="Segoe UI, Arial, sans-serif" font-size="22px" font-weight="bold" x="15" y="30">💻 Top Programming Languages</text><text fill="#666" font-family="Segoe UI, Arial, sans-serif" font-size="14px" x="15" y="50">by Lines of Code</text></g><text fill="#888" font-family="Segoe UI, Arial, sans-serif" font-size="12px" text-anchor="end" x="685" y="25">Total: 298,629 LOC across 6 languages</text><rect fill="#000000" height="24" opacity="0.1" rx="6" ry="6" width="409" x="202" y="55" /><rect fill="url(#major_gradient)" height="24" rx="6" ry="6" width="409" x="200" y="53" /><rect fill="none" height="24" opacity="0.3" rx="6" ry="6" stroke="#FFFFFF" stroke-width="1" width="409" x="200" y="53" /><text fill="#666" font-family="Segoe UI, Arial, sans-serif" font-size="12px" font-weight="bold" x="15" y="68">1.</text><text fill="#1A1A1A" font-family="Segoe UI, Arial, sans-serif" font-size="14px" font-weight="bold" x="35" y="68">🥇 TypeScript</text><text fill="#1A1A1A" font-family="Segoe UI, Arial, sans-serif" font-size="13px" font-weight="bold" text-anchor="end" x="685" y="68">271,614</text><text fill="#666" font-family="Segoe UI, Arial, sans-serif" font-size="10px" text-anchor="end" x="685" y="80">LOC</text><text fill="#fff" font-family="Segoe UI, Arial, sans-serif" font-size="12px" font-weight="bold" text-anchor="end" x="599" y="68">91.0%</text><rect fill="#000000" height="24" opacity="0.1" rx="6" ry="6" width="17" x="202" y="90" /><rect fill="url(#minor_gradient)" height="24" rx="6" ry="6" width="17" x="200" y="88" /><rect fill="none" height="24" opacity="0.3" rx="6" ry="6" stroke="#FFFFFF" stroke-width="1" width="17" x="200" y="88" /><text fill="#666" font-family="Segoe UI, Arial, sans-serif" font-size="12px" font-weight="bold" x="15" y="103">2.</text><text fill="#1A1A1A" font-family="Segoe UI, Arial, sans-serif" font-size="14px" font-weight="bold" x="35" y="103">🥉 SQL</text><text fill="#1A1A1A" font-family="Segoe UI, Arial, sans-serif" font-size="13px" font-weight="bold" text-anchor="end" x="685" y="103">11,585</text><text fill="#666" font-family="Segoe UI, Arial, sans-serif" font-size="10px" text-anchor="end" x="685" y="115">LOC</text><text fill="#4F8EF7" font-family="Segoe UI, Arial, sans-serif" font-size="12px" font-weight="bold" text-anchor="start" x="227" y="103">3.9%</text><rect fill="#000000" height="24" opacity="0.1" rx="6" ry="6" width="13" x="202" y="125" /><rect fill="url(#minor_gradient)" height="24" rx="6" ry="6" width="13" x="200" y="123" /><rect fill="none" height="24" opacity="0.3" rx="6" ry="6" stroke="#FFFFFF" stroke-width="1" width="13" x="200" y="123" /><text fill="#666" font-family="Segoe UI, Arial, sans-serif" font-size="12px" font-weight="bold" x="15" y="138">3.</text><text fill="#1A1A1A" font-family="Segoe UI, Arial, sans-serif" font-size="14px" font-weight="bold" x="35" y="138">🥉 Python</text><text fill="#1A1A1A" font-family="Segoe UI, Arial, sans-serif" font-size="13px" font-weight="bold" text-anchor="end" x="685" y="138">9,212</text><text fill="#666" font-family="Segoe UI, Arial, sans-serif" font-size="10px" text-anchor="end" x="685" y="150">LOC</text><text fill="#4F8EF7" font-family="Segoe UI, Arial, sans-serif" font-size="12px" font-weight="bold" text-anchor="start" x="223" y="138">3.1%</text><rect fill="#000000" height="24" opacity="0.1" rx="6" ry="6" width="5" x="202" y="160" /><rect fill="url(#minor_gradient)" height="24" rx="6" ry="6" width="5" x="200" y="158" /><rect fill="none" height="24" opacity="0.3" rx="6" ry="6" stroke="#FFFFFF" stroke-width="1" width="5" x="200" y="158" /><text fill="#666" font-family="Segoe UI, Arial, sans-serif" font-size="12px" font-weight="bold" x="15" y="173">4.</text><text fill="#1A1A1A" font-family="Segoe UI, Arial, sans-serif" font-size="14px" font-weight="bold" x="35" y="173">🥉 JavaScript</text><text fill="#1A1A1A" font-family="Segoe UI, Arial, sans-serif" font-size="13px" font-weight="bold" text-anchor="end" x="685" y="173">3,921</text><text fill="#666" font-family="Segoe UI, Arial, sans-serif" font-size="10px" text-anchor="end" x="685" y="185">LOC</text><text fill="#4F8EF7" font-family="Segoe UI, Arial, sans-serif" font-size="12px" font-weight="bold" text-anchor="start" x="215" y="173">1.3%</text><rect fill="#000000" height="24" opacity="0.1" rx="6" ry="6" width="2" x="202" y="195" /><rect fill="url(#minor_gradient)" height="24" rx="6" ry="6" width="2" x="200" y="193" /><rect fill="none" height="24" opacity="0.3" rx="6" ry="6" stroke="#FFFFFF" stroke-width="1" width="2" x="200" y="193" /><text fill="#666" font-family="Segoe UI, Arial, sans-serif" font-size="12px" font-weight="bold" x="15" y="208">5.</text><text fill="#1A1A1A" font-family="Segoe UI, Arial, sans-serif" font-size="14px" font-weight="bold" x="35" y="208">🥉 CSS</text><text fill="#1A1A1A" font-family="Segoe UI, Arial, sans-serif" font-size="13px" font-weight="bold" text-anchor="end" x="685" y="208">1,957</text><text fill="#666" font-family="Segoe UI, Arial, sans-serif" font-size="10px" text-anchor="end" x="685" y="220">LOC</text><text fill="#4F8EF7" font-family="Segoe UI, Arial, sans-serif" font-size="12px" font-weight="bold" text-anchor="start" x="212" y="208">0.7%</text><rect fill="#000000" height="24" opacity="0.1" rx="6" ry="6" width="0" x="202" y="230" /><rect fill="url(#minor_gradient)" height="24" rx="6" ry="6" width="0" x="200" y="228" /><rect fill="none" height="24" opacity="0.3" rx="6" ry="6" stroke="#FFFFFF" stroke-width="1" width="0" x="200" y="228" /><text fill="#666" font-family="Segoe UI, Arial, sans-serif" font-size="12px" font-weight="bold" x="15" y="243">6.</text><text fill="#1A1A1A" font-family="Segoe UI, Arial, sans-serif" font-size="14px" font-weight="bold" x="35" y="243">🥉 HTML</text><text fill="#1A1A1A" font-family="Segoe UI, Arial, sans-serif" font-size="13px" font-weight="bold" text-anchor="end" x="685" y="243">340</text><text fill="#666" font-family="Segoe UI, Arial, sans-serif" font-size="10px" text-anchor="end" x="685" y="255">LOC</text><text fill="#4F8EF7" font-family="Segoe UI, Arial, sans-serif" font-size="12px" font-weight="bold" text-anchor="start" x="210" y="243">0.1%</text><rect fill="#F8F9FA" height="25" stroke="#E9ECEF" stroke-width="1" width="700" x="0" y="265" /><text fill="#666" font-family="Segoe UI, Arial, sans-serif" font-size="10px" x="15" y="282">📊 Generated on 2026-01-05 03:36 UTC | Total: 298,629 LOC | 6 languages | (excluded unnecessary files extensions like .svg, .json, .txt, .md, .log, .cfg, etc...)</text></svg>