<?xml version="1.0" encoding="utf-8" ?>
<svg baseProfile="full" height="330" version="1.1" width="600" xmlns="http://www.w3.org/2000/svg" xmlns:ev="http://www.w3.org/2001/xml-events" xmlns:xlink="http://www.w3.org/1999/xlink"><defs /><rect fill="#ffffff" height="330" width="600" x="0" y="0" /><text fill="#222" font-family="Segoe UI" font-size="20px" font-weight="bold" x="10" y="25">Languages by Lines of Code</text><rect fill="#4F8EF7" height="20" rx="4" ry="4" width="400" x="180" y="35" /><text fill="#222" font-family="Segoe UI" font-size="14px" x="10" y="48">TypeScript</text><text fill="#666" font-family="Segoe UI" font-size="12px" x="590" y="48">106,122 LOC</text><text fill="#888" font-family="Segoe UI" font-size="10px" x="590" y="62">(100.0%)</text><rect fill="#6BB6FF" height="20" rx="4" ry="4" width="126" x="180" y="65" /><text fill="#222" font-family="Segoe UI" font-size="14px" x="10" y="78">Configuration</text><text fill="#666" font-family="Segoe UI" font-size="12px" x="316" y="78">33,492 LOC</text><text fill="#888" font-family="Segoe UI" font-size="10px" x="316" y="92">(31.6%)</text><rect fill="#A8D8FF" height="20" rx="4" ry="4" width="28" x="180" y="95" /><text fill="#222" font-family="Segoe UI" font-size="14px" x="10" y="108">Unknown</text><text fill="#666" font-family="Segoe UI" font-size="12px" x="218" y="108">7,678 LOC</text><text fill="#888" font-family="Segoe UI" font-size="10px" x="218" y="122">(7.2%)</text><rect fill="#A8D8FF" height="20" rx="4" ry="4" width="28" x="180" y="125" /><text fill="#222" font-family="Segoe UI" font-size="14px" x="10" y="138">Python</text><text fill="#666" font-family="Segoe UI" font-size="12px" x="218" y="138">7,659 LOC</text><text fill="#888" font-family="Segoe UI" font-size="10px" x="218" y="152">(7.2%)</text><rect fill="#A8D8FF" height="20" rx="4" ry="4" width="20" x="180" y="155" /><text fill="#222" font-family="Segoe UI" font-size="14px" x="10" y="168">Documentation</text><text fill="#666" font-family="Segoe UI" font-size="12px" x="210" y="168">2,344 LOC</text><text fill="#888" font-family="Segoe UI" font-size="10px" x="210" y="182">(2.2%)</text><rect fill="#A8D8FF" height="20" rx="4" ry="4" width="20" x="180" y="185" /><text fill="#222" font-family="Segoe UI" font-size="14px" x="10" y="198">CSS</text><text fill="#666" font-family="Segoe UI" font-size="12px" x="210" y="198">1,652 LOC</text><text fill="#888" font-family="Segoe UI" font-size="10px" x="210" y="212">(1.6%)</text><rect fill="#A8D8FF" height="20" rx="4" ry="4" width="20" x="180" y="215" /><text fill="#222" font-family="Segoe UI" font-size="14px" x="10" y="228">JavaScript</text><text fill="#666" font-family="Segoe UI" font-size="12px" x="210" y="228">411 LOC</text><text fill="#888" font-family="Segoe UI" font-size="10px" x="210" y="242">(0.4%)</text><rect fill="#A8D8FF" height="20" rx="4" ry="4" width="20" x="180" y="245" /><text fill="#222" font-family="Segoe UI" font-size="14px" x="10" y="258">Assets</text><text fill="#666" font-family="Segoe UI" font-size="12px" x="210" y="258">267 LOC</text><text fill="#888" font-family="Segoe UI" font-size="10px" x="210" y="272">(0.3%)</text><rect fill="#A8D8FF" height="20" rx="4" ry="4" width="20" x="180" y="275" /><text fill="#222" font-family="Segoe UI" font-size="14px" x="10" y="288">HTML</text><text fill="#666" font-family="Segoe UI" font-size="12px" x="210" y="288">226 LOC</text><text fill="#888" font-family="Segoe UI" font-size="10px" x="210" y="302">(0.2%)</text></svg>