<?xml version="1.0" encoding="utf-8" ?>
<svg baseProfile="full" height="292" version="1.1" width="500" xmlns="http://www.w3.org/2000/svg" xmlns:ev="http://www.w3.org/2001/xml-events" xmlns:xlink="http://www.w3.org/1999/xlink"><defs /><rect fill="#4F8EF7" height="20" rx="6" ry="6" width="320" x="150" y="12" /><text fill="#222" font-family="Segoe UI" font-size="16px" x="10" y="26">TypeScript</text><text fill="#444" font-family="Segoe UI" font-size="14px" x="480" y="26">106,122 LOC</text><rect fill="#4F8EF7" height="20" rx="6" ry="6" width="100" x="150" y="40" /><text fill="#222" font-family="Segoe UI" font-size="16px" x="10" y="54">Configuration</text><text fill="#444" font-family="Segoe UI" font-size="14px" x="260" y="54">33,492 LOC</text><rect fill="#4F8EF7" height="20" rx="6" ry="6" width="23" x="150" y="68" /><text fill="#222" font-family="Segoe UI" font-size="16px" x="10" y="82">Unknown</text><text fill="#444" font-family="Segoe UI" font-size="14px" x="183" y="82">7,678 LOC</text><rect fill="#4F8EF7" height="20" rx="6" ry="6" width="23" x="150" y="96" /><text fill="#222" font-family="Segoe UI" font-size="16px" x="10" y="110">Python</text><text fill="#444" font-family="Segoe UI" font-size="14px" x="183" y="110">7,659 LOC</text><rect fill="#4F8EF7" height="20" rx="6" ry="6" width="7" x="150" y="124" /><text fill="#222" font-family="Segoe UI" font-size="16px" x="10" y="138">Documentation</text><text fill="#444" font-family="Segoe UI" font-size="14px" x="167" y="138">2,344 LOC</text><rect fill="#4F8EF7" height="20" rx="6" ry="6" width="4" x="150" y="152" /><text fill="#222" font-family="Segoe UI" font-size="16px" x="10" y="166">CSS</text><text fill="#444" font-family="Segoe UI" font-size="14px" x="164" y="166">1,652 LOC</text><rect fill="#4F8EF7" height="20" rx="6" ry="6" width="1" x="150" y="180" /><text fill="#222" font-family="Segoe UI" font-size="16px" x="10" y="194">JavaScript</text><text fill="#444" font-family="Segoe UI" font-size="14px" x="161" y="194">411 LOC</text><rect fill="#4F8EF7" height="20" rx="6" ry="6" width="0" x="150" y="208" /><text fill="#222" font-family="Segoe UI" font-size="16px" x="10" y="222">Assets</text><text fill="#444" font-family="Segoe UI" font-size="14px" x="160" y="222">267 LOC</text><rect fill="#4F8EF7" height="20" rx="6" ry="6" width="0" x="150" y="236" /><text fill="#222" font-family="Segoe UI" font-size="16px" x="10" y="250">HTML</text><text fill="#444" font-family="Segoe UI" font-size="14px" x="160" y="250">226 LOC</text><text fill="#222" font-family="Segoe UI" font-size="18px" font-weight="bold" x="10" y="20">Languages by Lines of Code</text></svg>